<svg id="visual" viewBox="0 0 900 600" width="900" height="600" xmlns="http://www.w3.org/2000/svg" xmlns:xlink="http://www.w3.org/1999/xlink" version="1.1"><rect x="0" y="0" width="900" height="600" fill="#F5F5F5"></rect><path d="M0 455L21.5 455.2C43 455.3 86 455.7 128.8 444.3C171.7 433 214.3 410 257.2 404.5C300 399 343 411 385.8 427.5C428.7 444 471.3 465 514.2 479.7C557 494.3 600 502.7 642.8 487.5C685.7 472.3 728.3 433.7 771.2 411.3C814 389 857 383 878.5 380L900 377L900 601L878.5 601C857 601 814 601 771.2 601C728.3 601 685.7 601 642.8 601C600 601 557 601 514.2 601C471.3 601 428.7 601 385.8 601C343 601 300 601 257.2 601C214.3 601 171.7 601 128.8 601C86 601 43 601 21.5 601L0 601Z" fill="#002233" stroke-linecap="round" stroke-linejoin="miter"></path></svg>