<svg id="visual" viewBox="0 0 900 600" width="900" height="600" xmlns="http://www.w3.org/2000/svg" xmlns:xlink="http://www.w3.org/1999/xlink" version="1.1"><rect x="0" y="0" width="900" height="600" fill="#F5F5F5"></rect><path d="M0 379L21.5 387C43 395 86 411 128.8 432.2C171.7 453.3 214.3 479.7 257.2 477C300 474.3 343 442.7 385.8 429.8C428.7 417 471.3 423 514.2 434.2C557 445.3 600 461.7 642.8 459.2C685.7 456.7 728.3 435.3 771.2 425C814 414.7 857 415.3 878.5 415.7L900 416L900 601L878.5 601C857 601 814 601 771.2 601C728.3 601 685.7 601 642.8 601C600 601 557 601 514.2 601C471.3 601 428.7 601 385.8 601C343 601 300 601 257.2 601C214.3 601 171.7 601 128.8 601C86 601 43 601 21.5 601L0 601Z" fill="#002233" stroke-linecap="round" stroke-linejoin="miter"></path></svg>