<svg id="visual" viewBox="0 0 900 600" width="900" height="600" xmlns="http://www.w3.org/2000/svg" xmlns:xlink="http://www.w3.org/1999/xlink" version="1.1"><rect x="0" y="0" width="900" height="600" fill="#f5f5f5"></rect><path d="M0 378L30 372.7C60 367.3 120 356.7 180 366.3C240 376 300 406 360 410.8C420 415.7 480 395.3 540 357.8C600 320.3 660 265.7 720 239.8C780 214 840 217 870 218.5L900 220L900 601L870 601C840 601 780 601 720 601C660 601 600 601 540 601C480 601 420 601 360 601C300 601 240 601 180 601C120 601 60 601 30 601L0 601Z" fill="#002233" stroke-linecap="round" stroke-linejoin="miter"></path></svg>